<?xml version="1.0" encoding="UTF-8" standalone="no"?>
<!DOCTYPE svg PUBLIC "-//W3C//DTD SVG 1.1//EN" "http://www.w3.org/Graphics/SVG/1.1/DTD/svg11.dtd">
<svg width="100%" height="100%" viewBox="0 0 500 500" version="1.1" xmlns="http://www.w3.org/2000/svg" xmlns:xlink="http://www.w3.org/1999/xlink" xml:space="preserve" xmlns:serif="http://www.serif.com/" style="fill-rule:evenodd;clip-rule:evenodd;stroke-linecap:square;stroke-linejoin:round;stroke-miterlimit:1.5;">
    <g transform="matrix(1,0,0,1,-542,0)">
        <rect id="Logo-travaillé" serif:id="Logo travaillé" x="542" y="0" width="500" height="500" style="fill:none;"/>
        <g id="Logo-travaillé1" serif:id="Logo travaillé">
            <g transform="matrix(1.01039,0,0,1.01039,548.52,-0.296129)">
                <path d="M467.698,257.651L467.698,21L14.254,21L14.254,219.089M467.698,360.491L467.698,295.579M14.254,325.889L14.254,474.444L467.698,474.444L467.698,395.089" style="fill:none;stroke:rgb(182,128,84);stroke-width:3.96px;"/>
            </g>
            <g transform="matrix(1,0,0,1,539.548,4.16477)">
                <g transform="matrix(1,0,0,1,256.137,420.624)">
                    <path d="M98.188,5.375C92.281,5.375 87.109,4.156 82.667,1.729C78.234,-0.687 74.964,-4.219 72.854,-8.875C71.156,-12.885 70.313,-17.109 70.313,-21.542C70.313,-26.401 71.104,-31.417 72.688,-36.583C74.271,-41.76 76.229,-46.99 78.563,-52.271C75.604,-52.047 72.589,-51.729 69.521,-51.312C66.464,-50.896 63.458,-50.469 60.5,-50.042C54.167,-48.984 48.359,-47.562 43.083,-45.771C37.802,-43.979 33.052,-43.083 28.833,-43.083C23.333,-43.083 20.271,-44.135 19.646,-46.25C19.214,-46.667 19,-47.089 19,-47.521C19,-49.63 20.156,-51.844 22.479,-54.167C25.656,-57.333 29.042,-60.234 32.625,-62.875C36.208,-65.51 39.797,-68.208 43.396,-70.958C49.729,-75.594 57.276,-81.344 66.042,-88.208C74.802,-95.068 84.042,-102.193 93.75,-109.583C103.469,-116.984 113.026,-123.901 122.417,-130.333C131.818,-136.776 140.526,-142.005 148.542,-146.021C156.568,-150.031 163.229,-152.042 168.521,-152.042C171.464,-152.042 173.573,-151.51 174.854,-150.458C175.479,-150.026 176,-149.281 176.417,-148.229C176.844,-147.172 176.214,-146.755 174.521,-146.979C169.672,-147.396 164.5,-145.276 159,-140.625C153.51,-135.984 147.969,-129.651 142.375,-121.625C136.776,-113.609 131.443,-104.797 126.375,-95.187C121.302,-85.573 116.656,-76.125 112.438,-66.833C124.896,-65.984 135.563,-63.714 144.438,-60.021C153.313,-56.323 157.75,-50.781 157.75,-43.396C157.75,-42.755 157.693,-42.115 157.583,-41.479C157.469,-40.854 157.313,-40.115 157.104,-39.271C156.896,-37.797 156.26,-37.109 155.208,-37.208C154.151,-37.318 153.833,-37.901 154.25,-38.958C155.526,-42.125 154.104,-44.76 149.979,-46.875C145.865,-48.984 140.005,-50.615 132.396,-51.771C124.797,-52.937 116.25,-53.521 106.75,-53.521C104,-46.354 101.615,-39.859 99.604,-34.042C97.604,-28.234 96.396,-23.75 95.979,-20.583C95.771,-19.526 95.609,-18.521 95.5,-17.562C95.385,-16.615 95.333,-15.615 95.333,-14.562C95.333,-10.771 96.068,-7.339 97.542,-4.271C99.026,-1.214 101.464,1.156 104.854,2.854C105.688,3.063 105.781,3.427 105.146,3.958C104.521,4.484 104,4.854 103.583,5.063C102.734,5.271 101.833,5.375 100.875,5.375L98.188,5.375ZM43.396,-61.458C48.88,-62.927 55.318,-64.135 62.708,-65.083C70.109,-66.042 77.714,-66.729 85.521,-67.146C88.063,-71.797 90.542,-76.125 92.958,-80.125C95.385,-84.135 97.552,-87.734 99.458,-90.917C102,-95.135 104.479,-99.302 106.896,-103.417C109.323,-107.542 112.021,-111.5 114.979,-115.292C112.865,-113.818 109.115,-111.073 103.729,-107.062C98.354,-103.047 92.177,-98.401 85.208,-93.125C78.234,-87.844 71.104,-82.406 63.813,-76.812C56.531,-71.214 49.729,-66.094 43.396,-61.458Z" style="fill:rgb(238,238,237);fill-rule:nonzero;"/>
                </g>
                <g transform="matrix(1,0,0,1,320.337,420.624)">
                    <path d="M98.188,5.375C92.281,5.375 87.109,4.156 82.667,1.729C78.234,-0.687 74.964,-4.219 72.854,-8.875C71.156,-12.885 70.313,-17.109 70.313,-21.542C70.313,-26.401 71.104,-31.417 72.688,-36.583C74.271,-41.76 76.229,-46.99 78.563,-52.271C75.604,-52.047 72.589,-51.729 69.521,-51.312C66.464,-50.896 63.458,-50.469 60.5,-50.042C54.167,-48.984 48.359,-47.562 43.083,-45.771C37.802,-43.979 33.052,-43.083 28.833,-43.083C23.333,-43.083 20.271,-44.135 19.646,-46.25C19.214,-46.667 19,-47.089 19,-47.521C19,-49.63 20.156,-51.844 22.479,-54.167C25.656,-57.333 29.042,-60.234 32.625,-62.875C36.208,-65.51 39.797,-68.208 43.396,-70.958C49.729,-75.594 57.276,-81.344 66.042,-88.208C74.802,-95.068 84.042,-102.193 93.75,-109.583C103.469,-116.984 113.026,-123.901 122.417,-130.333C131.818,-136.776 140.526,-142.005 148.542,-146.021C156.568,-150.031 163.229,-152.042 168.521,-152.042C171.464,-152.042 173.573,-151.51 174.854,-150.458C175.479,-150.026 176,-149.281 176.417,-148.229C176.844,-147.172 176.214,-146.755 174.521,-146.979C169.672,-147.396 164.5,-145.276 159,-140.625C153.51,-135.984 147.969,-129.651 142.375,-121.625C136.776,-113.609 131.443,-104.797 126.375,-95.187C121.302,-85.573 116.656,-76.125 112.438,-66.833C124.896,-65.984 135.563,-63.714 144.438,-60.021C153.313,-56.323 157.75,-50.781 157.75,-43.396C157.75,-42.755 157.693,-42.115 157.583,-41.479C157.469,-40.854 157.313,-40.115 157.104,-39.271C156.896,-37.797 156.26,-37.109 155.208,-37.208C154.151,-37.318 153.833,-37.901 154.25,-38.958C155.526,-42.125 154.104,-44.76 149.979,-46.875C145.865,-48.984 140.005,-50.615 132.396,-51.771C124.797,-52.937 116.25,-53.521 106.75,-53.521C104,-46.354 101.615,-39.859 99.604,-34.042C97.604,-28.234 96.396,-23.75 95.979,-20.583C95.771,-19.526 95.609,-18.521 95.5,-17.562C95.385,-16.615 95.333,-15.615 95.333,-14.562C95.333,-10.771 96.068,-7.339 97.542,-4.271C99.026,-1.214 101.464,1.156 104.854,2.854C105.688,3.063 105.781,3.427 105.146,3.958C104.521,4.484 104,4.854 103.583,5.063C102.734,5.271 101.833,5.375 100.875,5.375L98.188,5.375ZM43.396,-61.458C48.88,-62.927 55.318,-64.135 62.708,-65.083C70.109,-66.042 77.714,-66.729 85.521,-67.146C88.063,-71.797 90.542,-76.125 92.958,-80.125C95.385,-84.135 97.552,-87.734 99.458,-90.917C102,-95.135 104.479,-99.302 106.896,-103.417C109.323,-107.542 112.021,-111.5 114.979,-115.292C112.865,-113.818 109.115,-111.073 103.729,-107.062C98.354,-103.047 92.177,-98.401 85.208,-93.125C78.234,-87.844 71.104,-82.406 63.813,-76.812C56.531,-71.214 49.729,-66.094 43.396,-61.458Z" style="fill:rgb(238,238,237);fill-rule:nonzero;"/>
                </g>
                <g transform="matrix(1,0,0,1,22.5252,299.567)">
                    <path d="M60.979,12.25C48.313,12.25 37.177,10.922 27.583,8.271C17.984,5.615 11.135,2.656 7.042,-0.604C-3.167,-8.573 -8.271,-17.771 -8.271,-28.187C-8.271,-36.979 -4.443,-45.818 3.208,-54.708C10.875,-63.594 22.568,-71.76 38.292,-79.208C54.026,-86.667 73.844,-92.542 97.75,-96.833C107.969,-98.677 118.339,-100.109 128.854,-101.125C139.38,-102.151 149.958,-102.667 160.583,-102.667C169.568,-102.667 178.604,-102.255 187.688,-101.437C196.781,-100.615 205.729,-99.292 214.521,-97.458C217.38,-96.844 220.651,-96.073 224.333,-95.146C228.01,-94.229 231.792,-93.156 235.667,-91.937C252.625,-109.297 269.172,-126.562 285.313,-143.729C301.448,-160.896 317.083,-175.401 332.208,-187.25C342.833,-195.625 352.734,-201.339 361.917,-204.396C371.109,-207.464 379.281,-209 386.438,-209C394.813,-209 401.708,-207.719 407.125,-205.167C412.542,-202.609 416.068,-200.521 417.708,-198.896C418.318,-198.281 418.318,-197.667 417.708,-197.042C417.094,-196.427 416.479,-196.437 415.854,-197.062C414.839,-198.281 412.385,-199.609 408.5,-201.042C404.625,-202.469 399.625,-203.187 393.5,-203.187C385.927,-203.187 377.031,-201.448 366.813,-197.979C356.604,-194.505 345.271,-187.964 332.813,-178.354C317.49,-166.297 302.318,-152.458 287.292,-136.833C272.276,-121.208 257.005,-105.526 241.479,-89.792C249.448,-86.927 256.755,-83.047 263.396,-78.146C270.031,-73.24 273.865,-67.214 274.896,-60.062L274.896,-58.833C274.896,-58.01 274.688,-57.604 274.271,-57.604C273.656,-57.604 273.047,-58.219 272.438,-59.458C271.615,-61.708 269.318,-63.646 265.542,-65.271C261.76,-66.906 257.422,-68.234 252.521,-69.25C247.615,-70.276 242.917,-71.094 238.417,-71.708C233.927,-72.318 230.563,-72.729 228.313,-72.937L224.938,-73.25C207.979,-56.901 190.458,-41.833 172.375,-28.042C154.302,-14.25 135.151,-3.88 114.917,3.063C105.318,6.323 95.969,8.672 86.875,10.104C77.792,11.531 69.156,12.25 60.979,12.25ZM297.875,27.271C288.677,20.729 281.938,12.859 277.646,3.667C273.354,-5.51 271.208,-15.417 271.208,-26.042C271.208,-36.667 273.047,-47.292 276.729,-57.917C280.406,-68.75 285.771,-79.984 292.813,-91.625C299.865,-103.276 307.583,-114.667 315.958,-125.792C324.333,-136.927 332.448,-147.146 340.313,-156.437C348.188,-165.74 354.823,-173.458 360.229,-179.583C365.646,-185.708 368.865,-189.484 369.896,-190.917C371.115,-192.552 372.031,-193.375 372.646,-193.375C373.464,-193.375 374.073,-192.708 374.479,-191.375C374.896,-190.052 375.104,-188.573 375.104,-186.937C375.104,-183.672 374.589,-181.323 373.563,-179.896C368.255,-173.146 361.922,-164.562 354.563,-154.146C347.214,-143.729 339.755,-132.13 332.188,-119.354C324.63,-106.589 317.583,-93.464 311.042,-79.979C304.51,-66.49 299.255,-53.312 295.271,-40.437C291.281,-27.573 289.292,-15.833 289.292,-5.208C289.292,0.917 290.109,6.531 291.75,11.646C293.385,16.755 296.042,21.25 299.708,25.125C299.917,25.333 300.021,25.635 300.021,26.042C300.021,26.458 299.813,26.865 299.396,27.271C298.99,27.688 298.484,27.688 297.875,27.271ZM61.896,7.042C69.464,7.042 77.635,6.375 86.417,5.042C95.208,3.719 104.297,1.63 113.688,-1.229C131.255,-6.74 148.719,-16.135 166.083,-29.417C183.458,-42.693 200.521,-57.505 217.271,-73.854C214.615,-74.062 211.964,-74.167 209.313,-74.167L201.042,-74.167C186.734,-74.167 171.865,-73.448 156.438,-72.021C141.021,-70.589 126.365,-68.547 112.479,-65.896C89.99,-62.005 71.651,-57.151 57.458,-51.333C43.26,-45.51 32.844,-39.437 26.208,-33.104C19.568,-26.771 16.25,-20.74 16.25,-15.021C16.25,-9.505 19.005,-4.698 24.521,-0.604C27.38,1.438 32.073,3.219 38.604,4.75C45.146,6.276 52.906,7.042 61.896,7.042Z" style="fill:rgb(238,238,237);fill-rule:nonzero;"/>
                </g>
            </g>
        </g>
    </g>
</svg>
